<svg width="169" height="65" viewBox="0 0 169 65" fill="none" xmlns="http://www.w3.org/2000/svg">
<g filter="url(#filter0_ddd_135_346)">
<g clip-path="url(#clip0_135_346)">
<rect x="11.4083" y="10" width="146.183" height="42" rx="21" fill="#FFAE02"/>
<rect x="11.4083" y="10" width="146.183" height="42" rx="21" fill="url(#paint0_linear_135_346)" fill-opacity="0.25" style="mix-blend-mode:soft-light"/>
<rect x="11.4083" y="10" width="146.183" height="42" rx="21" stroke="url(#paint1_linear_135_346)" stroke-width="6" style="mix-blend-mode:soft-light"/>
</g>
<rect x="6.90833" y="5.5" width="155.183" height="51" rx="25.5" stroke="#0A0A0A" stroke-opacity="0.35" stroke-width="3"/>
</g>
<g filter="url(#filter1_ddd_135_346)">
<path d="M37.9125 30.9C37.9125 29.5 38.1925 28.2533 38.7525 27.16C39.3258 26.0667 40.1391 25.22 41.1925 24.62C42.2458 24.0067 43.4858 23.7 44.9125 23.7C46.1391 23.7 47.2325 23.9333 48.1925 24.4C49.1658 24.8533 49.9525 25.5 50.5525 26.34C51.1658 27.18 51.5725 28.16 51.7725 29.28H47.0925C46.8791 28.8133 46.5725 28.4533 46.1725 28.2C45.7858 27.9333 45.3391 27.8 44.8325 27.8C44.0858 27.8 43.4925 28.08 43.0525 28.64C42.6258 29.2 42.4125 29.9533 42.4125 30.9C42.4125 31.8467 42.6258 32.6 43.0525 33.16C43.4925 33.72 44.0858 34 44.8325 34C45.3391 34 45.7858 33.8733 46.1725 33.62C46.5725 33.3533 46.8791 32.9867 47.0925 32.52H51.7725C51.5725 33.64 51.1658 34.62 50.5525 35.46C49.9525 36.3 49.1658 36.9533 48.1925 37.42C47.2325 37.8733 46.1391 38.1 44.9125 38.1C43.4858 38.1 42.2458 37.8 41.1925 37.2C40.1391 36.5867 39.3258 35.7333 38.7525 34.64C38.1925 33.5467 37.9125 32.3 37.9125 30.9ZM58.431 38.14C57.2977 38.14 56.2777 37.9067 55.371 37.44C54.4644 36.9733 53.751 36.3067 53.231 35.44C52.7244 34.56 52.471 33.5333 52.471 32.36C52.471 31.1867 52.7244 30.1667 53.231 29.3C53.751 28.42 54.4644 27.7467 55.371 27.28C56.2777 26.8133 57.2977 26.58 58.431 26.58C59.5644 26.58 60.5844 26.8133 61.491 27.28C62.3977 27.7467 63.1044 28.42 63.611 29.3C64.131 30.1667 64.391 31.1867 64.391 32.36C64.391 33.5333 64.131 34.56 63.611 35.44C63.1044 36.3067 62.3977 36.9733 61.491 37.44C60.5844 37.9067 59.5644 38.14 58.431 38.14ZM58.431 34.3C58.8444 34.3 59.191 34.14 59.471 33.82C59.751 33.4867 59.891 33 59.891 32.36C59.891 31.72 59.751 31.24 59.471 30.92C59.191 30.5867 58.8444 30.42 58.431 30.42C58.0177 30.42 57.671 30.5867 57.391 30.92C57.111 31.24 56.971 31.72 56.971 32.36C56.971 33 57.1044 33.4867 57.371 33.82C57.651 34.14 58.0044 34.3 58.431 34.3ZM73.3859 26.64C74.6792 26.64 75.6859 27.0733 76.4059 27.94C77.1392 28.8067 77.5059 29.98 77.5059 31.46V38H73.0859V32.02C73.0859 31.4867 72.9392 31.0667 72.6459 30.76C72.3659 30.44 71.9859 30.28 71.5059 30.28C71.0126 30.28 70.6259 30.44 70.3459 30.76C70.0659 31.0667 69.9259 31.4867 69.9259 32.02V38H65.4859V26.72H69.9259V28.44C70.2726 27.9067 70.7326 27.4733 71.3059 27.14C71.8926 26.8067 72.5859 26.64 73.3859 26.64ZM86.1512 34.22V38H84.4712C81.3779 38 79.8312 36.46 79.8312 33.38V30.42H78.4312V26.72H79.8312V24H84.2712V26.72H86.1112V30.42H84.2712V33.46C84.2712 33.7267 84.3312 33.92 84.4512 34.04C84.5845 34.16 84.7979 34.22 85.0912 34.22H86.1512ZM89.7821 25.82C89.0088 25.82 88.3888 25.6133 87.9221 25.2C87.4555 24.7867 87.2221 24.2667 87.2221 23.64C87.2221 23 87.4555 22.4733 87.9221 22.06C88.3888 21.6333 89.0088 21.42 89.7821 21.42C90.5421 21.42 91.1555 21.6333 91.6221 22.06C92.0888 22.4733 92.3221 23 92.3221 23.64C92.3221 24.2667 92.0888 24.7867 91.6221 25.2C91.1555 25.6133 90.5421 25.82 89.7821 25.82ZM91.9821 26.72V38H87.5421V26.72H91.9821ZM101.587 26.64C102.881 26.64 103.887 27.0733 104.607 27.94C105.341 28.8067 105.707 29.98 105.707 31.46V38H101.287V32.02C101.287 31.4867 101.141 31.0667 100.847 30.76C100.567 30.44 100.187 30.28 99.7075 30.28C99.2141 30.28 98.8275 30.44 98.5475 30.76C98.2675 31.0667 98.1275 31.4867 98.1275 32.02V38H93.6875V26.72H98.1275V28.44C98.4741 27.9067 98.9341 27.4733 99.5075 27.14C100.094 26.8067 100.787 26.64 101.587 26.64ZM119.273 26.72V38H114.833V36.28C114.486 36.8133 114.019 37.2467 113.433 37.58C112.859 37.9133 112.173 38.08 111.373 38.08C110.079 38.08 109.066 37.6467 108.333 36.78C107.613 35.9133 107.253 34.74 107.253 33.26V26.72H111.673V32.7C111.673 33.2333 111.813 33.66 112.093 33.98C112.386 34.2867 112.773 34.44 113.253 34.44C113.746 34.44 114.133 34.2867 114.413 33.98C114.693 33.66 114.833 33.2333 114.833 32.7V26.72H119.273ZM131.898 32.26C131.898 32.5667 131.878 32.86 131.838 33.14H124.698C124.765 34.1133 125.171 34.6 125.918 34.6C126.398 34.6 126.745 34.38 126.958 33.94H131.658C131.498 34.74 131.158 35.46 130.638 36.1C130.131 36.7267 129.485 37.2267 128.698 37.6C127.925 37.96 127.071 38.14 126.138 38.14C125.018 38.14 124.018 37.9067 123.138 37.44C122.271 36.9733 121.591 36.3067 121.098 35.44C120.618 34.56 120.378 33.5333 120.378 32.36C120.378 31.1867 120.618 30.1667 121.098 29.3C121.591 28.42 122.271 27.7467 123.138 27.28C124.018 26.8133 125.018 26.58 126.138 26.58C127.258 26.58 128.251 26.8133 129.118 27.28C129.998 27.7333 130.678 28.3867 131.158 29.24C131.651 30.0933 131.898 31.1 131.898 32.26ZM127.398 31.2C127.398 30.8267 127.278 30.5467 127.038 30.36C126.798 30.16 126.498 30.06 126.138 30.06C125.351 30.06 124.891 30.44 124.758 31.2H127.398Z" fill="white"/>
</g>
<defs>
<filter id="filter0_ddd_135_346" x="0.408325" y="0" width="168.183" height="65" filterUnits="userSpaceOnUse" color-interpolation-filters="sRGB">
<feFlood flood-opacity="0" result="BackgroundImageFix"/>
<feColorMatrix in="SourceAlpha" type="matrix" values="0 0 0 0 0 0 0 0 0 0 0 0 0 0 0 0 0 0 127 0" result="hardAlpha"/>
<feOffset dy="1"/>
<feGaussianBlur stdDeviation="2.5"/>
<feColorMatrix type="matrix" values="0 0 0 0 0 0 0 0 0 0 0 0 0 0 0 0 0 0 0.2 0"/>
<feBlend mode="normal" in2="BackgroundImageFix" result="effect1_dropShadow_135_346"/>
<feColorMatrix in="SourceAlpha" type="matrix" values="0 0 0 0 0 0 0 0 0 0 0 0 0 0 0 0 0 0 127 0" result="hardAlpha"/>
<feOffset dy="3"/>
<feGaussianBlur stdDeviation="2"/>
<feColorMatrix type="matrix" values="0 0 0 0 0 0 0 0 0 0 0 0 0 0 0 0 0 0 0.12 0"/>
<feBlend mode="normal" in2="effect1_dropShadow_135_346" result="effect2_dropShadow_135_346"/>
<feColorMatrix in="SourceAlpha" type="matrix" values="0 0 0 0 0 0 0 0 0 0 0 0 0 0 0 0 0 0 127 0" result="hardAlpha"/>
<feOffset dy="2"/>
<feGaussianBlur stdDeviation="2"/>
<feColorMatrix type="matrix" values="0 0 0 0 0 0 0 0 0 0 0 0 0 0 0 0 0 0 0.14 0"/>
<feBlend mode="normal" in2="effect2_dropShadow_135_346" result="effect3_dropShadow_135_346"/>
<feBlend mode="normal" in="SourceGraphic" in2="effect3_dropShadow_135_346" result="shape"/>
</filter>
<filter id="filter1_ddd_135_346" x="32.9125" y="17.4199" width="103.986" height="27.7202" filterUnits="userSpaceOnUse" color-interpolation-filters="sRGB">
<feFlood flood-opacity="0" result="BackgroundImageFix"/>
<feColorMatrix in="SourceAlpha" type="matrix" values="0 0 0 0 0 0 0 0 0 0 0 0 0 0 0 0 0 0 127 0" result="hardAlpha"/>
<feOffset dy="1"/>
<feGaussianBlur stdDeviation="2.5"/>
<feColorMatrix type="matrix" values="0 0 0 0 0.532764 0 0 0 0 0.0516202 0 0 0 0 0.0516202 0 0 0 0.2 0"/>
<feBlend mode="normal" in2="BackgroundImageFix" result="effect1_dropShadow_135_346"/>
<feColorMatrix in="SourceAlpha" type="matrix" values="0 0 0 0 0 0 0 0 0 0 0 0 0 0 0 0 0 0 127 0" result="hardAlpha"/>
<feOffset dy="3"/>
<feGaussianBlur stdDeviation="2"/>
<feColorMatrix type="matrix" values="0 0 0 0 0.482764 0 0 0 0 0.0467756 0 0 0 0 0.0467756 0 0 0 0.12 0"/>
<feBlend mode="normal" in2="effect1_dropShadow_135_346" result="effect2_dropShadow_135_346"/>
<feColorMatrix in="SourceAlpha" type="matrix" values="0 0 0 0 0 0 0 0 0 0 0 0 0 0 0 0 0 0 127 0" result="hardAlpha"/>
<feOffset dy="2"/>
<feGaussianBlur stdDeviation="2"/>
<feColorMatrix type="matrix" values="0 0 0 0 0.357764 0 0 0 0 0.100254 0 0 0 0 0.100254 0 0 0 0.14 0"/>
<feBlend mode="normal" in2="effect2_dropShadow_135_346" result="effect3_dropShadow_135_346"/>
<feBlend mode="normal" in="SourceGraphic" in2="effect3_dropShadow_135_346" result="shape"/>
</filter>
<linearGradient id="paint0_linear_135_346" x1="84.5" y1="7" x2="84.5" y2="55" gradientUnits="userSpaceOnUse">
<stop/>
<stop offset="1" stop-color="white" stop-opacity="0"/>
</linearGradient>
<linearGradient id="paint1_linear_135_346" x1="84.5" y1="7" x2="84.5" y2="55" gradientUnits="userSpaceOnUse">
<stop stop-color="white"/>
<stop offset="1"/>
</linearGradient>
<clipPath id="clip0_135_346">
<rect x="8.40833" y="7" width="152.183" height="48" rx="24" fill="white"/>
</clipPath>
</defs>
</svg>