<svg width="55" height="51" viewBox="0 0 55 51" fill="none" xmlns="http://www.w3.org/2000/svg">
<path d="M5.72919 15.9375C5.72919 13.5903 7.78122 11.6875 10.3125 11.6875H44.6875C47.2188 11.6875 49.2709 13.5903 49.2709 15.9375V22.3125V43.5625C49.2709 44.1493 48.7578 44.625 48.125 44.625H6.87502C6.24219 44.625 5.72919 44.1493 5.72919 43.5625V22.3125V15.9375Z" fill="#CA693F"/>
<path fill-rule="evenodd" clip-rule="evenodd" d="M10.3125 10.625H44.6875C47.8516 10.625 50.4167 13.0035 50.4167 15.9375V43.5625C50.4167 44.7361 49.3907 45.6875 48.125 45.6875H6.87501C5.60936 45.6875 4.58334 44.7361 4.58334 43.5625V15.9375C4.58334 13.0035 7.14838 10.625 10.3125 10.625ZM10.3125 11.6875C7.7812 11.6875 5.72918 13.5903 5.72918 15.9375V43.5625C5.72918 44.1493 6.24218 44.625 6.87501 44.625H48.125C48.7578 44.625 49.2708 44.1493 49.2708 43.5625V15.9375C49.2708 13.5903 47.2188 11.6875 44.6875 11.6875H10.3125Z" fill="#5B3303"/>
<path d="M5.72919 24.4375H49.2709V26.5625H5.72919V24.4375Z" fill="#9A4A28"/>
<path d="M45.2604 43.2969C45.2604 43.737 44.8757 44.0938 44.401 44.0938C43.9264 44.0938 43.5417 43.737 43.5417 43.2969C43.5417 42.8568 43.9264 42.5 44.401 42.5C44.8757 42.5 45.2604 42.8568 45.2604 43.2969Z" fill="#AE5129"/>
<path d="M48.125 37.7188C48.125 38.3056 47.612 38.7812 46.9792 38.7812C46.3464 38.7812 45.8333 38.3056 45.8333 37.7188C45.8333 37.1319 46.3464 36.6562 46.9792 36.6562C47.612 36.6562 48.125 37.1319 48.125 37.7188Z" fill="#AE5129"/>
<path d="M46.9792 40.375C46.9792 40.6684 46.7227 40.9062 46.4063 40.9062C46.0898 40.9062 45.8333 40.6684 45.8333 40.375C45.8333 40.0816 46.0898 39.8438 46.4063 39.8438C46.7227 39.8438 46.9792 40.0816 46.9792 40.375Z" fill="#AE5129"/>
<path d="M44.6875 37.4531C44.6875 37.8932 44.3027 38.25 43.8281 38.25C43.3535 38.25 42.9688 37.8932 42.9688 37.4531C42.9688 37.013 43.3535 36.6562 43.8281 36.6562C44.3027 36.6562 44.6875 37.013 44.6875 37.4531Z" fill="#AE5129"/>
<path d="M40.6771 37.4531C40.6771 37.8932 40.2923 38.25 39.8177 38.25C39.3431 38.25 38.9583 37.8932 38.9583 37.4531C38.9583 37.013 39.3431 36.6562 39.8177 36.6562C40.2923 36.6562 40.6771 37.013 40.6771 37.4531Z" fill="#AE5129"/>
<path d="M45.2604 34C45.2604 34.2934 45.0039 34.5312 44.6875 34.5312C44.3711 34.5312 44.1146 34.2934 44.1146 34C44.1146 33.7066 44.3711 33.4688 44.6875 33.4688C45.0039 33.4688 45.2604 33.7066 45.2604 34Z" fill="#AE5129"/>
<path d="M47.5521 35.0625C47.5521 35.3559 47.2956 35.5938 46.9792 35.5938C46.6628 35.5938 46.4062 35.3559 46.4062 35.0625C46.4062 34.7691 46.6628 34.5312 46.9792 34.5312C47.2956 34.5312 47.5521 34.7691 47.5521 35.0625Z" fill="#AE5129"/>
<path d="M48.6979 31.3438C48.6979 31.6372 48.4414 31.875 48.125 31.875C47.8086 31.875 47.5521 31.6372 47.5521 31.3438C47.5521 31.0503 47.8086 30.8125 48.125 30.8125C48.4414 30.8125 48.6979 31.0503 48.6979 31.3438Z" fill="#AE5129"/>
<path d="M48.125 42.5C48.125 42.7934 47.8685 43.0312 47.5521 43.0312C47.2357 43.0312 46.9792 42.7934 46.9792 42.5C46.9792 42.2066 47.2357 41.9688 47.5521 41.9688C47.8685 41.9688 48.125 42.2066 48.125 42.5Z" fill="#AE5129"/>
<path d="M40.6771 34.5312C40.6771 34.8247 40.4206 35.0625 40.1042 35.0625C39.7878 35.0625 39.5312 34.8247 39.5312 34.5312C39.5312 34.2378 39.7878 34 40.1042 34C40.4206 34 40.6771 34.2378 40.6771 34.5312Z" fill="#AE5129"/>
<path d="M40.6771 42.7656C40.6771 43.2057 40.2923 43.5625 39.8177 43.5625C39.3431 43.5625 38.9583 43.2057 38.9583 42.7656C38.9583 42.3255 39.3431 41.9688 39.8177 41.9688C40.2923 41.9688 40.6771 42.3255 40.6771 42.7656Z" fill="#AE5129"/>
<path d="M38.9583 40.9062C38.9583 41.1997 38.7018 41.4375 38.3854 41.4375C38.069 41.4375 37.8125 41.1997 37.8125 40.9062C37.8125 40.6128 38.069 40.375 38.3854 40.375C38.7018 40.375 38.9583 40.6128 38.9583 40.9062Z" fill="#AE5129"/>
<path d="M36.6667 42.5C36.6667 42.7934 36.4102 43.0312 36.0938 43.0312C35.7773 43.0312 35.5208 42.7934 35.5208 42.5C35.5208 42.2066 35.7773 41.9688 36.0938 41.9688C36.4102 41.9688 36.6667 42.2066 36.6667 42.5Z" fill="#AE5129"/>
<path d="M38.9583 39.8438C38.9583 40.1372 38.7018 40.375 38.3854 40.375C38.069 40.375 37.8125 40.1372 37.8125 39.8438C37.8125 39.5503 38.069 39.3125 38.3854 39.3125C38.7018 39.3125 38.9583 39.5503 38.9583 39.8438Z" fill="#AE5129"/>
<path d="M36.6667 38.7812C36.6667 39.0747 36.4102 39.3125 36.0938 39.3125C35.7773 39.3125 35.5208 39.0747 35.5208 38.7812C35.5208 38.4878 35.7773 38.25 36.0938 38.25C36.4102 38.25 36.6667 38.4878 36.6667 38.7812Z" fill="#AE5129"/>
<path d="M33.8021 43.5625C33.8021 43.8559 33.5456 44.0938 33.2292 44.0938C32.9128 44.0938 32.6562 43.8559 32.6562 43.5625C32.6562 43.2691 32.9128 43.0312 33.2292 43.0312C33.5456 43.0312 33.8021 43.2691 33.8021 43.5625Z" fill="#AE5129"/>
<path d="M45.2604 39.3125C45.2604 39.6059 45.0039 39.8438 44.6875 39.8438C44.3711 39.8438 44.1146 39.6059 44.1146 39.3125C44.1146 39.0191 44.3711 38.7812 44.6875 38.7812C45.0039 38.7812 45.2604 39.0191 45.2604 39.3125Z" fill="#AE5129"/>
<path fill-rule="evenodd" clip-rule="evenodd" d="M8.94098 15.9375C8.94098 15.6441 9.19748 15.4062 9.5139 15.4062H45.4861C45.8025 15.4062 46.059 15.6441 46.059 15.9375C46.059 16.2309 45.8025 16.4688 45.4861 16.4688H9.5139C9.19748 16.4688 8.94098 16.2309 8.94098 15.9375Z" fill="#AE5129"/>
<path fill-rule="evenodd" clip-rule="evenodd" d="M7.01392 19.6562C7.01392 19.3628 7.27042 19.125 7.58683 19.125H47.4132C47.7296 19.125 47.9861 19.3628 47.9861 19.6562C47.9861 19.9497 47.7296 20.1875 47.4132 20.1875H7.58683C7.27042 20.1875 7.01392 19.9497 7.01392 19.6562Z" fill="#AE5129"/>
<path fill-rule="evenodd" clip-rule="evenodd" d="M5.72919 28.1562C5.72919 27.8628 5.98569 27.625 6.3021 27.625H48.6979C49.0144 27.625 49.2709 27.8628 49.2709 28.1562C49.2709 28.4497 49.0144 28.6875 48.6979 28.6875H6.3021C5.98569 28.6875 5.72919 28.4497 5.72919 28.1562Z" fill="#AE5129"/>
<path fill-rule="evenodd" clip-rule="evenodd" d="M5.72919 32.4062C5.72919 32.1128 5.98569 31.875 6.3021 31.875H48.6979C49.0144 31.875 49.2709 32.1128 49.2709 32.4062C49.2709 32.6997 49.0144 32.9375 48.6979 32.9375H6.3021C5.98569 32.9375 5.72919 32.6997 5.72919 32.4062Z" fill="#AE5129"/>
<path fill-rule="evenodd" clip-rule="evenodd" d="M5.72919 36.6562C5.72919 36.3628 5.98569 36.125 6.3021 36.125H48.6979C49.0144 36.125 49.2709 36.3628 49.2709 36.6562C49.2709 36.9497 49.0144 37.1875 48.6979 37.1875H6.3021C5.98569 37.1875 5.72919 36.9497 5.72919 36.6562Z" fill="#AE5129"/>
<path fill-rule="evenodd" clip-rule="evenodd" d="M5.72919 40.9062C5.72919 40.6128 5.98569 40.375 6.3021 40.375H48.6979C49.0144 40.375 49.2709 40.6128 49.2709 40.9062C49.2709 41.1997 49.0144 41.4375 48.6979 41.4375H6.3021C5.98569 41.4375 5.72919 41.1997 5.72919 40.9062Z" fill="#AE5129"/>
<path fill-rule="evenodd" clip-rule="evenodd" d="M6.3021 24.7031C6.61852 24.7031 6.87502 24.941 6.87502 25.2344V40.375C6.87502 40.6684 6.61852 40.9062 6.3021 40.9062C5.98569 40.9062 5.72919 40.6684 5.72919 40.375V25.2344C5.72919 24.941 5.98569 24.7031 6.3021 24.7031Z" fill="#FF8754"/>
<path fill-rule="evenodd" clip-rule="evenodd" d="M6.97121 12.8392C7.83269 12.0404 9.07838 11.6875 10.599 11.6875H43.5417C43.8581 11.6875 44.1146 11.9253 44.1146 12.2188C44.1146 12.5122 43.8581 12.75 43.5417 12.75H10.599C9.255 12.75 8.35224 13.0612 7.78144 13.5905C7.21063 14.1198 6.87502 14.9569 6.87502 16.2031V22.3125H48.125C48.4414 22.3125 48.6979 22.5503 48.6979 22.8438C48.6979 23.1372 48.4414 23.375 48.125 23.375H6.3021C5.98569 23.375 5.72919 23.1372 5.72919 22.8438V16.2031C5.72919 14.7931 6.10973 13.638 6.97121 12.8392Z" fill="#FF8754"/>
<path fill-rule="evenodd" clip-rule="evenodd" d="M6.97121 12.8392C7.83269 12.0404 9.07838 11.6875 10.599 11.6875C10.9154 11.6875 11.1719 11.9253 11.1719 12.2188C11.1719 12.5122 10.9154 12.75 10.599 12.75C9.255 12.75 8.35224 13.0612 7.78144 13.5905C7.21063 14.1198 6.87502 14.9569 6.87502 16.2031C6.87502 16.4965 6.61852 16.7344 6.3021 16.7344C5.98569 16.7344 5.72919 16.4965 5.72919 16.2031C5.72919 14.7931 6.10973 13.638 6.97121 12.8392Z" fill="#FFBDA0"/>
<path fill-rule="evenodd" clip-rule="evenodd" d="M4.58334 23.9062C4.58334 23.6128 4.83985 23.375 5.15626 23.375H49.8438C50.1602 23.375 50.4167 23.6128 50.4167 23.9062C50.4167 24.1997 50.1602 24.4375 49.8438 24.4375H5.15626C4.83985 24.4375 4.58334 24.1997 4.58334 23.9062Z" fill="#5B3303"/>
<path d="M22.9167 20.7188C22.9167 20.4253 23.1732 20.1875 23.4896 20.1875H31.5104C31.8269 20.1875 32.0834 20.4253 32.0834 20.7188V27.625L27.5 30.8125L22.9167 27.625V20.7188Z" fill="#DF8D12"/>
<path fill-rule="evenodd" clip-rule="evenodd" d="M33.2292 27.625C33.2292 27.9594 33.0594 28.2743 32.7708 28.475L28.1875 31.6625C27.7801 31.9458 27.2199 31.9458 26.8125 31.6625L22.2292 28.475C21.9406 28.2743 21.7708 27.9594 21.7708 27.625V20.7188C21.7708 19.8385 22.5404 19.125 23.4896 19.125H31.5104C32.4597 19.125 33.2292 19.8385 33.2292 20.7188V27.625ZM22.9167 27.625L27.5 30.8125L32.0833 27.625V20.7188C32.0833 20.4253 31.8268 20.1875 31.5104 20.1875H23.4896C23.1732 20.1875 22.9167 20.4253 22.9167 20.7188V27.625Z" fill="#652A11"/>
<path d="M29.2188 24.4375C29.2188 25.3177 28.4492 26.0312 27.5 26.0312C26.5508 26.0312 25.7812 25.3177 25.7812 24.4375C25.7812 23.5573 26.5508 22.8438 27.5 22.8438C28.4492 22.8438 29.2188 23.5573 29.2188 24.4375Z" fill="#FFB341"/>
<path fill-rule="evenodd" clip-rule="evenodd" d="M30.3646 24.4375C30.3646 25.9045 29.0821 27.0938 27.5 27.0938C25.918 27.0938 24.6354 25.9045 24.6354 24.4375C24.6354 22.9705 25.918 21.7812 27.5 21.7812C29.0821 21.7812 30.3646 22.9705 30.3646 24.4375ZM27.5 26.0312C28.4493 26.0312 29.2188 25.3177 29.2188 24.4375C29.2188 23.5573 28.4493 22.8438 27.5 22.8438C26.5508 22.8438 25.7813 23.5573 25.7813 24.4375C25.7813 25.3177 26.5508 26.0312 27.5 26.0312Z" fill="#944320"/>
<path fill-rule="evenodd" clip-rule="evenodd" d="M22.9167 20.7188C22.9167 20.4253 23.1732 20.1875 23.4896 20.1875H30.3646C30.681 20.1875 30.9375 20.4253 30.9375 20.7188C30.9375 21.0122 30.681 21.25 30.3646 21.25H24.0625V26.5625C24.0625 26.8559 23.806 27.0938 23.4896 27.0938C23.1732 27.0938 22.9167 26.8559 22.9167 26.5625V20.7188Z" fill="#FFB341"/>
<path d="M27.5 23.9062C27.5 24.1997 27.2435 24.4375 26.9271 24.4375C26.6107 24.4375 26.3542 24.1997 26.3542 23.9062C26.3542 23.6128 26.6107 23.375 26.9271 23.375C27.2435 23.375 27.5 23.6128 27.5 23.9062Z" fill="#FFEACA"/>
<path d="M40.1042 24.4375H43.5417V44.625H40.1042V24.4375Z" fill="#DF9422"/>
<path d="M43.5417 22.3125H41.8229H40.1042V11.6875H43.5417V22.3125Z" fill="#FBB750"/>
<path d="M11.4583 22.3125H13.1771H14.8958V11.6875H11.4583V22.3125Z" fill="#FBB750"/>
<path fill-rule="evenodd" clip-rule="evenodd" d="M12.0313 11.6875C12.3477 11.6875 12.6042 11.9253 12.6042 12.2188V17.7969C12.6042 18.0903 12.3477 18.3281 12.0313 18.3281C11.7148 18.3281 11.4583 18.0903 11.4583 17.7969V12.2188C11.4583 11.9253 11.7148 11.6875 12.0313 11.6875Z" fill="#FFDCA7"/>
<path fill-rule="evenodd" clip-rule="evenodd" d="M40.6771 11.6875C40.9935 11.6875 41.25 11.9253 41.25 12.2188V17.7969C41.25 18.0903 40.9935 18.3281 40.6771 18.3281C40.3607 18.3281 40.1042 18.0903 40.1042 17.7969V12.2188C40.1042 11.9253 40.3607 11.6875 40.6771 11.6875Z" fill="#FFDCA7"/>
<path d="M11.4583 24.4375H13.1771H14.8958V44.625H11.4583V24.4375Z" fill="#DF9422"/>
</svg>