<svg width="365" height="101" viewBox="0 0 365 101" fill="none" xmlns="http://www.w3.org/2000/svg">
<g filter="url(#filter0_di_10_146)">
<rect x="2" y="2" width="360.94" height="97" fill="#FFDD4F"/>
</g>
<rect x="6.34869" y="4.62158" width="352.243" height="91.7568" fill="url(#paint0_linear_10_146)"/>
<g filter="url(#filter1_i_10_146)">
<rect x="23.7434" y="13.7972" width="317.453" height="73.4054" fill="url(#paint1_linear_10_146)"/>
</g>
<path d="M327.039 34.2157C324.31 36.9151 319.785 34.6657 313.534 32.3687C305.736 29.576 301.674 28.5969 304.403 25.8975C307.132 23.1982 314.412 22.872 320.663 25.169C326.914 27.466 329.768 31.5164 327.039 34.2157Z" fill="#FFF5CE" fill-opacity="0.6" style="mix-blend-mode:overlay"/>
<path d="M296.508 26.0835C296.297 27.3392 293.396 27.8983 289.617 27.6671C284.931 27.4055 282.612 26.5021 282.824 25.2465C283.035 23.9908 286.27 23.1603 290.049 23.3914C293.827 23.6226 296.719 24.8279 296.508 26.0835Z" fill="#FFE600" fill-opacity="0.4" style="mix-blend-mode:overlay"/>
<mask id="path-6-outside-1_10_146" maskUnits="userSpaceOnUse" x="121.056" y="40" width="97" height="25" fill="black">
<rect fill="white" x="121.056" y="40" width="97" height="25"/>
<path d="M129.64 54.288C128.701 53.968 127.848 53.648 127.08 53.328C126.312 52.9867 125.651 52.5813 125.096 52.112C124.541 51.6427 124.104 51.088 123.784 50.448C123.485 49.7867 123.336 48.9867 123.336 48.048C123.336 46.2347 124.029 44.784 125.416 43.696C126.824 42.608 128.787 42.064 131.304 42.064C132.221 42.064 133.075 42.128 133.864 42.256C134.653 42.384 135.325 42.5867 135.88 42.864C136.456 43.12 136.904 43.4613 137.224 43.888C137.544 44.2933 137.704 44.7733 137.704 45.328C137.704 45.8827 137.576 46.3627 137.32 46.768C137.064 47.152 136.755 47.4827 136.392 47.76C135.923 47.4613 135.293 47.2053 134.504 46.992C133.715 46.7573 132.851 46.64 131.912 46.64C130.952 46.64 130.248 46.7787 129.8 47.056C129.352 47.312 129.128 47.6427 129.128 48.048C129.128 48.368 129.267 48.6347 129.544 48.848C129.821 49.04 130.237 49.2213 130.792 49.392L132.488 49.936C134.493 50.576 136.029 51.3973 137.096 52.4C138.184 53.3813 138.728 54.7253 138.728 56.432C138.728 58.2453 138.013 59.7173 136.584 60.848C135.155 61.9573 133.053 62.512 130.28 62.512C129.299 62.512 128.381 62.4267 127.528 62.256C126.696 62.1067 125.96 61.8827 125.32 61.584C124.701 61.264 124.211 60.88 123.848 60.432C123.507 59.9627 123.336 59.4293 123.336 58.832C123.336 58.2133 123.517 57.6907 123.88 57.264C124.243 56.816 124.637 56.4747 125.064 56.24C125.661 56.7093 126.387 57.1147 127.24 57.456C128.115 57.7973 129.064 57.968 130.088 57.968C131.133 57.968 131.869 57.808 132.296 57.488C132.723 57.168 132.936 56.7947 132.936 56.368C132.936 55.9413 132.765 55.6213 132.424 55.408C132.083 55.1733 131.603 54.9493 130.984 54.736L129.64 54.288ZM141.419 47.088C141.269 46.8533 141.131 46.5333 141.003 46.128C140.875 45.7227 140.811 45.296 140.811 44.848C140.811 44.016 140.992 43.4187 141.355 43.056C141.739 42.6933 142.229 42.512 142.827 42.512H156.779C156.928 42.7467 157.067 43.0667 157.195 43.472C157.323 43.8773 157.387 44.304 157.387 44.752C157.387 45.584 157.195 46.1813 156.811 46.544C156.448 46.9067 155.968 47.088 155.371 47.088H151.819V61.872C151.584 61.936 151.211 62 150.699 62.064C150.208 62.128 149.717 62.16 149.227 62.16C148.736 62.16 148.299 62.1173 147.915 62.032C147.552 61.968 147.243 61.84 146.987 61.648C146.731 61.456 146.539 61.1893 146.411 60.848C146.283 60.5067 146.219 60.0587 146.219 59.504V47.088H141.419ZM163.903 43.184C164.265 42.9707 164.809 42.768 165.535 42.576C166.281 42.384 167.028 42.288 167.775 42.288C168.841 42.288 169.78 42.448 170.591 42.768C171.423 43.0667 171.956 43.5467 172.191 44.208C172.575 45.3173 172.991 46.608 173.439 48.08C173.887 49.552 174.335 51.0773 174.783 52.656C175.231 54.2133 175.668 55.76 176.095 57.296C176.521 58.8107 176.895 60.1547 177.215 61.328C176.959 61.6267 176.575 61.8613 176.063 62.032C175.551 62.224 174.943 62.32 174.239 62.32C173.727 62.32 173.289 62.2773 172.927 62.192C172.585 62.1067 172.297 61.9787 172.063 61.808C171.849 61.6373 171.668 61.4133 171.519 61.136C171.391 60.8587 171.273 60.5387 171.167 60.176L170.591 57.968H164.799C164.628 58.608 164.457 59.2693 164.287 59.952C164.116 60.6347 163.945 61.296 163.775 61.936C163.476 62.0427 163.156 62.128 162.815 62.192C162.495 62.2773 162.1 62.32 161.631 62.32C160.543 62.32 159.732 62.1387 159.199 61.776C158.687 61.392 158.431 60.8693 158.431 60.208C158.431 59.9093 158.473 59.6107 158.559 59.312C158.644 59.0133 158.74 58.6613 158.847 58.256C158.996 57.68 159.199 56.9653 159.455 56.112C159.732 55.2587 160.031 54.3413 160.351 53.36C160.671 52.3573 161.012 51.3333 161.375 50.288C161.737 49.2427 162.079 48.2613 162.399 47.344C162.719 46.4053 163.007 45.5733 163.263 44.848C163.54 44.1227 163.753 43.568 163.903 43.184ZM167.743 47.312C167.444 48.208 167.103 49.2107 166.719 50.32C166.356 51.408 166.025 52.5173 165.727 53.648H169.695C169.396 52.496 169.087 51.376 168.767 50.288C168.468 49.1787 168.191 48.1867 167.935 47.312H167.743ZM186.365 55.728V61.872C186.131 61.936 185.757 62 185.245 62.064C184.755 62.128 184.264 62.16 183.773 62.16C183.283 62.16 182.845 62.1173 182.461 62.032C182.099 61.968 181.789 61.84 181.533 61.648C181.299 61.456 181.117 61.1893 180.989 60.848C180.861 60.5067 180.797 60.0587 180.797 59.504V44.432C180.797 43.984 180.915 43.6427 181.149 43.408C181.405 43.152 181.747 42.9493 182.173 42.8C182.899 42.544 183.741 42.3627 184.701 42.256C185.661 42.128 186.685 42.064 187.773 42.064C190.717 42.064 192.936 42.6827 194.429 43.92C195.923 45.1573 196.669 46.832 196.669 48.944C196.669 50.2667 196.328 51.3973 195.645 52.336C194.963 53.2747 194.152 54 193.213 54.512C193.981 55.5573 194.739 56.5387 195.485 57.456C196.232 58.3733 196.819 59.2053 197.245 59.952C197.032 60.6987 196.637 61.2747 196.061 61.68C195.507 62.064 194.877 62.256 194.173 62.256C193.704 62.256 193.299 62.2027 192.957 62.096C192.616 61.9893 192.317 61.84 192.061 61.648C191.805 61.456 191.571 61.2213 191.357 60.944C191.144 60.6667 190.941 60.368 190.749 60.048L188.061 55.728H186.365ZM188.381 51.472C189.192 51.472 189.832 51.2693 190.301 50.864C190.771 50.4373 191.005 49.8187 191.005 49.008C191.005 48.1973 190.739 47.5893 190.205 47.184C189.693 46.7573 188.872 46.544 187.741 46.544C187.421 46.544 187.165 46.5547 186.973 46.576C186.781 46.5973 186.568 46.6293 186.333 46.672V51.472H188.381ZM199.893 47.088C199.743 46.8533 199.605 46.5333 199.477 46.128C199.349 45.7227 199.285 45.296 199.285 44.848C199.285 44.016 199.466 43.4187 199.829 43.056C200.213 42.6933 200.703 42.512 201.301 42.512H215.253C215.402 42.7467 215.541 43.0667 215.669 43.472C215.797 43.8773 215.861 44.304 215.861 44.752C215.861 45.584 215.669 46.1813 215.285 46.544C214.922 46.9067 214.442 47.088 213.845 47.088H210.293V61.872C210.058 61.936 209.685 62 209.173 62.064C208.682 62.128 208.191 62.16 207.701 62.16C207.21 62.16 206.773 62.1173 206.389 62.032C206.026 61.968 205.717 61.84 205.461 61.648C205.205 61.456 205.013 61.1893 204.885 60.848C204.757 60.5067 204.693 60.0587 204.693 59.504V47.088H199.893Z"/>
</mask>
<path d="M129.64 54.288C128.701 53.968 127.848 53.648 127.08 53.328C126.312 52.9867 125.651 52.5813 125.096 52.112C124.541 51.6427 124.104 51.088 123.784 50.448C123.485 49.7867 123.336 48.9867 123.336 48.048C123.336 46.2347 124.029 44.784 125.416 43.696C126.824 42.608 128.787 42.064 131.304 42.064C132.221 42.064 133.075 42.128 133.864 42.256C134.653 42.384 135.325 42.5867 135.88 42.864C136.456 43.12 136.904 43.4613 137.224 43.888C137.544 44.2933 137.704 44.7733 137.704 45.328C137.704 45.8827 137.576 46.3627 137.32 46.768C137.064 47.152 136.755 47.4827 136.392 47.76C135.923 47.4613 135.293 47.2053 134.504 46.992C133.715 46.7573 132.851 46.64 131.912 46.64C130.952 46.64 130.248 46.7787 129.8 47.056C129.352 47.312 129.128 47.6427 129.128 48.048C129.128 48.368 129.267 48.6347 129.544 48.848C129.821 49.04 130.237 49.2213 130.792 49.392L132.488 49.936C134.493 50.576 136.029 51.3973 137.096 52.4C138.184 53.3813 138.728 54.7253 138.728 56.432C138.728 58.2453 138.013 59.7173 136.584 60.848C135.155 61.9573 133.053 62.512 130.28 62.512C129.299 62.512 128.381 62.4267 127.528 62.256C126.696 62.1067 125.96 61.8827 125.32 61.584C124.701 61.264 124.211 60.88 123.848 60.432C123.507 59.9627 123.336 59.4293 123.336 58.832C123.336 58.2133 123.517 57.6907 123.88 57.264C124.243 56.816 124.637 56.4747 125.064 56.24C125.661 56.7093 126.387 57.1147 127.24 57.456C128.115 57.7973 129.064 57.968 130.088 57.968C131.133 57.968 131.869 57.808 132.296 57.488C132.723 57.168 132.936 56.7947 132.936 56.368C132.936 55.9413 132.765 55.6213 132.424 55.408C132.083 55.1733 131.603 54.9493 130.984 54.736L129.64 54.288ZM141.419 47.088C141.269 46.8533 141.131 46.5333 141.003 46.128C140.875 45.7227 140.811 45.296 140.811 44.848C140.811 44.016 140.992 43.4187 141.355 43.056C141.739 42.6933 142.229 42.512 142.827 42.512H156.779C156.928 42.7467 157.067 43.0667 157.195 43.472C157.323 43.8773 157.387 44.304 157.387 44.752C157.387 45.584 157.195 46.1813 156.811 46.544C156.448 46.9067 155.968 47.088 155.371 47.088H151.819V61.872C151.584 61.936 151.211 62 150.699 62.064C150.208 62.128 149.717 62.16 149.227 62.16C148.736 62.16 148.299 62.1173 147.915 62.032C147.552 61.968 147.243 61.84 146.987 61.648C146.731 61.456 146.539 61.1893 146.411 60.848C146.283 60.5067 146.219 60.0587 146.219 59.504V47.088H141.419ZM163.903 43.184C164.265 42.9707 164.809 42.768 165.535 42.576C166.281 42.384 167.028 42.288 167.775 42.288C168.841 42.288 169.78 42.448 170.591 42.768C171.423 43.0667 171.956 43.5467 172.191 44.208C172.575 45.3173 172.991 46.608 173.439 48.08C173.887 49.552 174.335 51.0773 174.783 52.656C175.231 54.2133 175.668 55.76 176.095 57.296C176.521 58.8107 176.895 60.1547 177.215 61.328C176.959 61.6267 176.575 61.8613 176.063 62.032C175.551 62.224 174.943 62.32 174.239 62.32C173.727 62.32 173.289 62.2773 172.927 62.192C172.585 62.1067 172.297 61.9787 172.063 61.808C171.849 61.6373 171.668 61.4133 171.519 61.136C171.391 60.8587 171.273 60.5387 171.167 60.176L170.591 57.968H164.799C164.628 58.608 164.457 59.2693 164.287 59.952C164.116 60.6347 163.945 61.296 163.775 61.936C163.476 62.0427 163.156 62.128 162.815 62.192C162.495 62.2773 162.1 62.32 161.631 62.32C160.543 62.32 159.732 62.1387 159.199 61.776C158.687 61.392 158.431 60.8693 158.431 60.208C158.431 59.9093 158.473 59.6107 158.559 59.312C158.644 59.0133 158.74 58.6613 158.847 58.256C158.996 57.68 159.199 56.9653 159.455 56.112C159.732 55.2587 160.031 54.3413 160.351 53.36C160.671 52.3573 161.012 51.3333 161.375 50.288C161.737 49.2427 162.079 48.2613 162.399 47.344C162.719 46.4053 163.007 45.5733 163.263 44.848C163.54 44.1227 163.753 43.568 163.903 43.184ZM167.743 47.312C167.444 48.208 167.103 49.2107 166.719 50.32C166.356 51.408 166.025 52.5173 165.727 53.648H169.695C169.396 52.496 169.087 51.376 168.767 50.288C168.468 49.1787 168.191 48.1867 167.935 47.312H167.743ZM186.365 55.728V61.872C186.131 61.936 185.757 62 185.245 62.064C184.755 62.128 184.264 62.16 183.773 62.16C183.283 62.16 182.845 62.1173 182.461 62.032C182.099 61.968 181.789 61.84 181.533 61.648C181.299 61.456 181.117 61.1893 180.989 60.848C180.861 60.5067 180.797 60.0587 180.797 59.504V44.432C180.797 43.984 180.915 43.6427 181.149 43.408C181.405 43.152 181.747 42.9493 182.173 42.8C182.899 42.544 183.741 42.3627 184.701 42.256C185.661 42.128 186.685 42.064 187.773 42.064C190.717 42.064 192.936 42.6827 194.429 43.92C195.923 45.1573 196.669 46.832 196.669 48.944C196.669 50.2667 196.328 51.3973 195.645 52.336C194.963 53.2747 194.152 54 193.213 54.512C193.981 55.5573 194.739 56.5387 195.485 57.456C196.232 58.3733 196.819 59.2053 197.245 59.952C197.032 60.6987 196.637 61.2747 196.061 61.68C195.507 62.064 194.877 62.256 194.173 62.256C193.704 62.256 193.299 62.2027 192.957 62.096C192.616 61.9893 192.317 61.84 192.061 61.648C191.805 61.456 191.571 61.2213 191.357 60.944C191.144 60.6667 190.941 60.368 190.749 60.048L188.061 55.728H186.365ZM188.381 51.472C189.192 51.472 189.832 51.2693 190.301 50.864C190.771 50.4373 191.005 49.8187 191.005 49.008C191.005 48.1973 190.739 47.5893 190.205 47.184C189.693 46.7573 188.872 46.544 187.741 46.544C187.421 46.544 187.165 46.5547 186.973 46.576C186.781 46.5973 186.568 46.6293 186.333 46.672V51.472H188.381ZM199.893 47.088C199.743 46.8533 199.605 46.5333 199.477 46.128C199.349 45.7227 199.285 45.296 199.285 44.848C199.285 44.016 199.466 43.4187 199.829 43.056C200.213 42.6933 200.703 42.512 201.301 42.512H215.253C215.402 42.7467 215.541 43.0667 215.669 43.472C215.797 43.8773 215.861 44.304 215.861 44.752C215.861 45.584 215.669 46.1813 215.285 46.544C214.922 46.9067 214.442 47.088 213.845 47.088H210.293V61.872C210.058 61.936 209.685 62 209.173 62.064C208.682 62.128 208.191 62.16 207.701 62.16C207.21 62.16 206.773 62.1173 206.389 62.032C206.026 61.968 205.717 61.84 205.461 61.648C205.205 61.456 205.013 61.1893 204.885 60.848C204.757 60.5067 204.693 60.0587 204.693 59.504V47.088H199.893Z" fill="white"/>
<path d="M129.64 54.288L128.995 56.1811L129.008 56.1854L129.64 54.288ZM127.08 53.328L126.268 55.1556L126.289 55.1651L126.311 55.1742L127.08 53.328ZM123.784 50.448L121.961 51.2712L121.978 51.3071L121.995 51.3424L123.784 50.448ZM125.416 43.696L124.193 42.1134L124.187 42.118L124.181 42.1225L125.416 43.696ZM133.864 42.256L134.184 40.2818H134.184L133.864 42.256ZM135.88 42.864L134.986 44.6529L135.026 44.6732L135.068 44.6916L135.88 42.864ZM137.224 43.888L135.624 45.088L135.639 45.1078L135.654 45.1273L137.224 43.888ZM137.32 46.768L138.984 47.8774L138.998 47.8569L139.011 47.836L137.32 46.768ZM136.392 47.76L135.318 49.4473L136.497 50.1974L137.607 49.3487L136.392 47.76ZM134.504 46.992L133.934 48.9091L133.958 48.9162L133.982 48.9227L134.504 46.992ZM129.8 47.056L130.792 48.7925L130.823 48.775L130.853 48.7565L129.8 47.056ZM129.544 48.848L128.325 50.4332L128.364 50.4638L128.406 50.4924L129.544 48.848ZM130.792 49.392L131.403 47.4876L131.392 47.4839L131.38 47.4804L130.792 49.392ZM132.488 49.936L131.877 51.8404L131.88 51.8413L132.488 49.936ZM137.096 52.4L135.726 53.8573L135.741 53.8714L135.756 53.8851L137.096 52.4ZM136.584 60.848L137.81 62.428L137.818 62.4223L137.825 62.4166L136.584 60.848ZM127.528 62.256L127.92 60.2948L127.901 60.291L127.881 60.2875L127.528 62.256ZM125.32 61.584L124.401 63.3604L124.437 63.3791L124.474 63.3964L125.32 61.584ZM123.848 60.432L122.231 61.6083L122.261 61.6502L122.294 61.6904L123.848 60.432ZM123.88 57.264L125.404 58.5593L125.419 58.541L125.435 58.5224L123.88 57.264ZM125.064 56.24L126.3 54.6674L125.259 53.85L124.1 54.4876L125.064 56.24ZM127.24 57.456L126.497 59.313L126.505 59.3161L126.513 59.3192L127.24 57.456ZM132.296 57.488L133.496 59.088H133.496L132.296 57.488ZM132.424 55.408L131.291 57.0561L131.327 57.0808L131.364 57.104L132.424 55.408ZM130.984 54.736L131.636 52.8453L131.626 52.8419L131.616 52.8386L130.984 54.736ZM130.285 52.395C129.381 52.0866 128.57 51.782 127.849 51.4818L126.311 55.1742C127.126 55.514 128.022 55.8494 128.995 56.181L130.285 52.395ZM127.892 51.5004C127.271 51.2243 126.777 50.9146 126.388 50.5852L123.804 53.6388C124.524 54.248 125.353 54.749 126.268 55.1556L127.892 51.5004ZM126.388 50.5852C126.037 50.2881 125.77 49.9475 125.573 49.5536L121.995 51.3424C122.438 52.2285 123.046 52.9973 123.804 53.6388L126.388 50.5852ZM125.607 49.6248C125.454 49.2863 125.336 48.7828 125.336 48.048H121.336C121.336 49.1906 121.517 50.287 121.961 51.2712L125.607 49.6248ZM125.336 48.048C125.336 46.8282 125.763 45.9658 126.651 45.2695L124.181 42.1225C122.296 43.6022 121.336 45.6411 121.336 48.048H125.336ZM126.639 45.2786C127.577 44.5534 129.05 44.064 131.304 44.064V40.064C128.523 40.064 126.071 40.6626 124.193 42.1134L126.639 45.2786ZM131.304 44.064C132.129 44.064 132.874 44.1217 133.544 44.2302L134.184 40.2818C133.275 40.1343 132.313 40.064 131.304 40.064V44.064ZM133.544 44.2302C134.188 44.3347 134.655 44.4878 134.986 44.6529L136.774 41.0751C135.995 40.6855 135.119 40.4333 134.184 40.2818L133.544 44.2302ZM135.068 44.6916C135.389 44.8343 135.543 44.9801 135.624 45.088L138.824 42.688C138.265 41.9425 137.523 41.4057 136.692 41.0364L135.068 44.6916ZM135.654 45.1273C135.674 45.1527 135.704 45.1874 135.704 45.328H139.704C139.704 44.3592 139.414 43.434 138.794 42.6487L135.654 45.1273ZM135.704 45.328C135.704 45.5652 135.653 45.6619 135.629 45.7L139.011 47.836C139.499 47.0634 139.704 46.2001 139.704 45.328H135.704ZM135.656 45.6586C135.521 45.8612 135.363 46.0293 135.177 46.1713L137.607 49.3487C138.147 48.936 138.607 48.4428 138.984 47.8774L135.656 45.6586ZM137.466 46.0727C136.766 45.6274 135.928 45.305 135.026 45.0613L133.982 48.9227C134.659 49.1057 135.079 49.2952 135.318 49.4473L137.466 46.0727ZM135.074 45.0749C134.076 44.7782 133.017 44.64 131.912 44.64V48.64C132.684 48.64 133.354 48.7365 133.934 48.9091L135.074 45.0749ZM131.912 44.64C130.842 44.64 129.678 44.7794 128.747 45.3555L130.853 48.7565C130.813 48.7812 130.855 48.7449 131.051 48.7063C131.241 48.6688 131.521 48.64 131.912 48.64V44.64ZM128.808 45.3195C127.934 45.8189 127.128 46.7234 127.128 48.048H131.128C131.128 48.2389 131.068 48.4467 130.952 48.6177C130.85 48.768 130.759 48.8116 130.792 48.7925L128.808 45.3195ZM127.128 48.048C127.128 49.0528 127.608 49.882 128.325 50.4332L130.763 47.2628C130.818 47.3048 130.921 47.4008 131.006 47.5653C131.095 47.7353 131.128 47.9081 131.128 48.048H127.128ZM128.406 50.4924C128.93 50.8557 129.573 51.1094 130.204 51.3036L131.38 47.4804C131.156 47.4114 130.987 47.3484 130.863 47.2946C130.802 47.2681 130.758 47.2459 130.726 47.2291C130.695 47.212 130.681 47.203 130.682 47.2036L128.406 50.4924ZM130.181 51.2964L131.877 51.8404L133.099 48.0316L131.403 47.4876L130.181 51.2964ZM131.88 51.8413C133.717 52.4275 134.951 53.1282 135.726 53.8573L138.466 50.9427C137.108 49.6665 135.27 48.7245 133.096 48.0307L131.88 51.8413ZM135.756 53.8851C136.353 54.4236 136.728 55.189 136.728 56.432H140.728C140.728 54.2616 140.015 52.3391 138.436 50.9149L135.756 53.8851ZM136.728 56.432C136.728 57.6303 136.296 58.5259 135.343 59.2794L137.825 62.4166C139.731 60.9088 140.728 58.8603 140.728 56.432H136.728ZM135.358 59.268C134.422 59.9939 132.833 60.512 130.28 60.512V64.512C133.274 64.512 135.887 63.9207 137.81 62.428L135.358 59.268ZM130.28 60.512C129.414 60.512 128.629 60.4366 127.92 60.2948L127.136 64.2172C128.133 64.4167 129.183 64.512 130.28 64.512V60.512ZM127.881 60.2875C127.187 60.1629 126.622 59.9845 126.166 59.7716L124.474 63.3964C125.298 63.7808 126.205 64.0505 127.175 64.2245L127.881 60.2875ZM126.239 59.8076C125.816 59.5886 125.559 59.367 125.403 59.1736L122.294 61.6904C122.862 62.393 123.587 62.9394 124.401 63.3604L126.239 59.8076ZM125.466 59.2557C125.38 59.1387 125.336 59.0199 125.336 58.832H121.336C121.336 59.8388 121.633 60.7866 122.231 61.6083L125.466 59.2557ZM125.336 58.832C125.336 58.6346 125.381 58.5857 125.404 58.5593L122.356 55.9687C121.653 56.7956 121.336 57.792 121.336 58.832H125.336ZM125.435 58.5224C125.664 58.2395 125.866 58.0815 126.028 57.9924L124.1 54.4876C123.409 54.8678 122.822 55.3925 122.326 56.0056L125.435 58.5224ZM123.828 57.8126C124.603 58.4214 125.503 58.9151 126.497 59.313L127.983 55.599C127.271 55.3142 126.72 54.9973 126.3 54.6674L123.828 57.8126ZM126.513 59.3192C127.64 59.7588 128.838 59.968 130.088 59.968V55.968C129.29 55.968 128.59 55.8359 127.967 55.5928L126.513 59.3192ZM130.088 59.968C131.215 59.968 132.521 59.8196 133.496 59.088L131.096 55.888C131.187 55.8198 131.194 55.8513 130.999 55.8936C130.813 55.9342 130.518 55.968 130.088 55.968V59.968ZM133.496 59.088C134.287 58.495 134.936 57.5804 134.936 56.368H130.936C130.936 56.2304 130.975 56.0888 131.04 55.9757C131.097 55.8757 131.142 55.8536 131.096 55.888L133.496 59.088ZM134.936 56.368C134.936 55.3017 134.451 54.3165 133.484 53.712L131.364 57.104C131.271 57.046 131.14 56.9311 131.043 56.7492C130.949 56.5724 130.936 56.425 130.936 56.368H134.936ZM133.557 53.7599C133.007 53.3817 132.339 53.0876 131.636 52.8453L130.332 56.6267C130.867 56.8111 131.158 56.965 131.291 57.0561L133.557 53.7599ZM131.616 52.8386L130.272 52.3906L129.008 56.1854L130.352 56.6334L131.616 52.8386ZM141.419 47.088L139.731 48.1617L140.321 49.088H141.419V47.088ZM141.003 46.128L139.096 46.7303V46.7303L141.003 46.128ZM141.355 43.056L139.982 41.602L139.961 41.6216L139.941 41.6418L141.355 43.056ZM156.779 42.512L158.466 41.4382L157.877 40.512H156.779V42.512ZM157.195 43.472L159.102 42.8697V42.8697L157.195 43.472ZM156.811 46.544L155.438 45.09L155.417 45.1096L155.397 45.1298L156.811 46.544ZM151.819 47.088V45.088H149.819V47.088H151.819ZM151.819 61.872L152.345 63.8015L153.819 63.3996V61.872H151.819ZM150.699 62.064L150.451 60.0794L150.44 60.0808L150.699 62.064ZM147.915 62.032L148.349 60.0796L148.306 60.0701L148.262 60.0624L147.915 62.032ZM146.987 61.648L148.187 60.048L146.987 61.648ZM146.411 60.848L144.538 61.5502H144.538L146.411 60.848ZM146.219 47.088H148.219V45.088H146.219V47.088ZM143.106 46.0142C143.086 45.9822 143.01 45.8426 142.91 45.5257L139.096 46.7303C139.252 47.2241 139.453 47.7245 139.731 48.1617L143.106 46.0142ZM142.91 45.5257C142.847 45.3255 142.811 45.1028 142.811 44.848H138.811C138.811 45.4892 138.903 46.1198 139.096 46.7303L142.91 45.5257ZM142.811 44.848C142.811 44.5677 142.842 44.4166 142.861 44.357C142.876 44.3052 142.865 44.3738 142.769 44.4702L139.941 41.6418C139.027 42.5555 138.811 43.8013 138.811 44.848H142.811ZM142.728 44.51C142.729 44.5088 142.726 44.5119 142.719 44.5163C142.712 44.5208 142.706 44.5232 142.704 44.524C142.698 44.5261 142.732 44.512 142.827 44.512V40.512C141.791 40.512 140.786 40.842 139.982 41.602L142.728 44.51ZM142.827 44.512H156.779V40.512H142.827V44.512ZM155.091 43.5858C155.112 43.6178 155.188 43.7574 155.288 44.0743L159.102 42.8697C158.946 42.3759 158.744 41.8755 158.466 41.4382L155.091 43.5858ZM155.288 44.0743C155.351 44.2745 155.387 44.4972 155.387 44.752H159.387C159.387 44.1108 159.295 43.4802 159.102 42.8697L155.288 44.0743ZM155.387 44.752C155.387 45.0237 155.354 45.1636 155.339 45.212C155.326 45.25 155.342 45.18 155.438 45.09L158.184 47.998C159.148 47.0877 159.387 45.825 159.387 44.752H155.387ZM155.397 45.1298C155.404 45.1226 155.416 45.1122 155.432 45.1017C155.448 45.0912 155.463 45.0846 155.472 45.0811C155.492 45.0736 155.467 45.088 155.371 45.088V49.088C156.404 49.088 157.425 48.7578 158.225 47.9582L155.397 45.1298ZM155.371 45.088H151.819V49.088H155.371V45.088ZM149.819 47.088V61.872H153.819V47.088H149.819ZM151.293 59.9425C151.203 59.9668 150.949 60.0172 150.451 60.0794L150.947 64.0486C151.473 63.9828 151.965 63.9052 152.345 63.8015L151.293 59.9425ZM150.44 60.0808C150.034 60.1337 149.63 60.16 149.227 60.16V64.16C149.805 64.16 150.382 64.1223 150.957 64.0472L150.44 60.0808ZM149.227 60.16C148.848 60.16 148.56 60.1267 148.349 60.0796L147.481 63.9844C148.037 64.108 148.624 64.16 149.227 64.16V60.16ZM148.262 60.0624C148.21 60.0532 148.183 60.0432 148.175 60.04C148.169 60.0371 148.175 60.0389 148.187 60.048L145.787 63.248C146.329 63.655 146.942 63.8913 147.567 64.0016L148.262 60.0624ZM148.187 60.048C148.225 60.0768 148.255 60.1088 148.274 60.1354C148.292 60.1605 148.292 60.1685 148.283 60.1458L144.538 61.5502C144.781 62.1978 145.185 62.7964 145.787 63.248L148.187 60.048ZM148.283 60.1458C148.272 60.1143 148.219 59.9309 148.219 59.504H144.219C144.219 60.1864 144.294 60.8991 144.538 61.5502L148.283 60.1458ZM148.219 59.504V47.088H144.219V59.504H148.219ZM146.219 45.088H141.419V49.088H146.219V45.088ZM163.903 43.184L162.889 41.4601L162.29 41.8121L162.039 42.4591L163.903 43.184ZM165.535 42.576L165.037 40.639L165.03 40.6408L165.023 40.6426L165.535 42.576ZM170.591 42.768L169.856 44.6283L169.886 44.6398L169.915 44.6504L170.591 42.768ZM172.191 44.208L174.081 43.5538L174.078 43.5465L174.076 43.5392L172.191 44.208ZM173.439 48.08L175.352 47.4977L173.439 48.08ZM174.783 52.656L172.859 53.202L172.861 53.2089L174.783 52.656ZM176.095 57.296L174.168 57.8313L174.17 57.8383L176.095 57.296ZM177.215 61.328L178.733 62.6296L179.423 61.8246L179.144 60.8018L177.215 61.328ZM176.063 62.032L175.43 60.1346L175.395 60.1463L175.361 60.1593L176.063 62.032ZM172.927 62.192L172.442 64.1323L172.455 64.1357L172.469 64.1388L172.927 62.192ZM172.063 61.808L170.813 63.3697L170.849 63.3984L170.886 63.4255L172.063 61.808ZM171.519 61.136L169.703 61.9741L169.729 62.03L169.758 62.0842L171.519 61.136ZM171.167 60.176L169.232 60.6808L169.239 60.7107L169.248 60.7403L171.167 60.176ZM170.591 57.968L172.526 57.4632L172.136 55.968H170.591V57.968ZM164.799 57.968V55.968H163.262L162.866 57.4527L164.799 57.968ZM164.287 59.952L162.346 59.4669L164.287 59.952ZM163.775 61.936L164.447 63.8195L165.437 63.4662L165.707 62.4513L163.775 61.936ZM162.815 62.192L162.446 60.2263L162.372 60.2401L162.299 60.2595L162.815 62.192ZM159.199 61.776L157.999 63.376L158.036 63.4038L158.074 63.4299L159.199 61.776ZM158.559 59.312L156.636 58.7626L158.559 59.312ZM158.847 58.256L160.781 58.765L160.783 58.7579L158.847 58.256ZM159.455 56.112L157.553 55.4938L157.546 55.5155L157.539 55.5373L159.455 56.112ZM160.351 53.36L162.252 53.9801L162.256 53.9681L160.351 53.36ZM161.375 50.288L159.485 49.6325L161.375 50.288ZM162.399 47.344L164.287 48.0027L164.29 47.9961L164.292 47.9893L162.399 47.344ZM163.263 44.848L161.395 44.1337L161.385 44.1579L161.377 44.1824L163.263 44.848ZM167.743 47.312V45.312H166.301L165.845 46.6795L167.743 47.312ZM166.719 50.32L164.829 49.6658L164.825 49.6766L164.821 49.6875L166.719 50.32ZM165.727 53.648L163.793 53.1372L163.13 55.648H165.727V53.648ZM169.695 53.648V55.648H172.279L171.631 53.1461L169.695 53.648ZM168.767 50.288L166.836 50.8079L166.842 50.8302L166.848 50.8523L168.767 50.288ZM167.935 47.312L169.854 46.7502L169.433 45.312H167.935V47.312ZM164.917 44.9079C165.045 44.8322 165.383 44.6851 166.047 44.5094L165.023 40.6426C164.236 40.8509 163.485 41.1091 162.889 41.4601L164.917 44.9079ZM166.033 44.513C166.622 44.3615 167.202 44.288 167.775 44.288V40.288C166.855 40.288 165.941 40.4065 165.037 40.639L166.033 44.513ZM167.775 44.288C168.645 44.288 169.326 44.4187 169.856 44.6283L171.325 40.9077C170.235 40.4773 169.038 40.288 167.775 40.288V44.288ZM169.915 44.6504C170.142 44.7317 170.242 44.8075 170.277 44.8386C170.302 44.861 170.303 44.8673 170.306 44.8768L174.076 43.5392C173.59 42.1699 172.503 41.3296 171.267 40.8856L169.915 44.6504ZM170.301 44.8622C170.674 45.9418 171.083 47.2075 171.525 48.6623L175.352 47.4977C174.899 46.0085 174.475 44.6929 174.081 43.5538L170.301 44.8622ZM171.525 48.6623C171.97 50.1215 172.414 51.6347 172.859 53.202L176.707 52.11C176.256 50.52 175.804 48.9825 175.352 47.4977L171.525 48.6623ZM172.861 53.2089C173.307 54.7605 173.743 56.3013 174.168 57.8313L178.022 56.7607C177.593 55.2187 177.154 53.6662 176.705 52.1031L172.861 53.2089ZM174.17 57.8383C174.595 59.3491 174.967 60.6875 175.285 61.8542L179.144 60.8018C178.822 59.6218 178.448 58.2723 178.02 56.7537L174.17 57.8383ZM175.696 60.0264C175.748 59.9658 175.721 60.0376 175.43 60.1346L176.695 63.9294C177.428 63.685 178.169 63.2875 178.733 62.6296L175.696 60.0264ZM175.361 60.1593C175.127 60.2468 174.769 60.32 174.239 60.32V64.32C175.117 64.32 175.974 64.2012 176.765 63.9047L175.361 60.1593ZM174.239 60.32C173.828 60.32 173.553 60.2848 173.385 60.2452L172.469 64.1388C173.026 64.2699 173.626 64.32 174.239 64.32V60.32ZM173.412 60.2517C173.268 60.2157 173.227 60.1818 173.239 60.1905L170.886 63.4255C171.368 63.7755 171.903 63.9976 172.442 64.1323L173.412 60.2517ZM173.312 60.2463C173.324 60.2556 173.326 60.2599 173.321 60.2536C173.316 60.2468 173.301 60.2269 173.28 60.1878L169.758 62.0842C170.015 62.5624 170.36 63.0073 170.813 63.3697L173.312 60.2463ZM173.335 60.2979C173.256 60.1271 173.171 59.9017 173.086 59.6117L169.248 60.7403C169.376 61.1756 169.526 61.5903 169.703 61.9741L173.335 60.2979ZM173.102 59.6712L172.526 57.4632L168.656 58.4728L169.232 60.6808L173.102 59.6712ZM170.591 55.968H164.799V59.968H170.591V55.968ZM162.866 57.4527C162.693 58.1033 162.52 58.7748 162.346 59.4669L166.227 60.4371C166.395 59.7639 166.563 59.1127 166.731 58.4833L162.866 57.4527ZM162.346 59.4669C162.178 60.1401 162.01 60.7913 161.842 61.4207L165.707 62.4513C165.881 61.8007 166.054 61.1292 166.227 60.4371L162.346 59.4669ZM163.102 60.0525C162.911 60.1207 162.694 60.1798 162.446 60.2263L163.183 64.1577C163.618 64.0762 164.041 63.9647 164.447 63.8195L163.102 60.0525ZM162.299 60.2595C162.201 60.2857 161.992 60.32 161.631 60.32V64.32C162.208 64.32 162.788 64.2689 163.33 64.1245L162.299 60.2595ZM161.631 60.32C160.697 60.32 160.367 60.1519 160.323 60.1221L158.074 63.4299C159.097 64.1254 160.388 64.32 161.631 64.32V60.32ZM160.399 60.176C160.381 60.163 160.381 60.1599 160.389 60.1693C160.393 60.1738 160.398 60.1803 160.403 60.1888C160.409 60.1973 160.414 60.2066 160.419 60.2163C160.429 60.2368 160.433 60.2516 160.434 60.2553C160.434 60.2583 160.431 60.2441 160.431 60.208H156.431C156.431 61.4742 156.964 62.5998 157.999 63.376L160.399 60.176ZM160.431 60.208C160.431 60.1025 160.445 59.9886 160.482 59.8614L156.636 58.7626C156.501 59.2327 156.431 59.7162 156.431 60.208H160.431ZM160.482 59.8614C160.572 59.5456 160.672 59.1795 160.781 58.765L156.913 57.747C156.808 58.1431 156.716 58.481 156.636 58.7626L160.482 59.8614ZM160.783 58.7579C160.924 58.2151 161.118 57.5265 161.37 56.6867L157.539 55.5373C157.279 56.4042 157.069 57.1449 156.911 57.7541L160.783 58.7579ZM161.357 56.7302C161.634 55.8775 161.932 54.9608 162.252 53.98L158.449 52.74C158.129 53.7218 157.83 54.6398 157.553 55.4938L161.357 56.7302ZM162.256 53.9681C162.571 52.9821 162.907 51.9739 163.264 50.9435L159.485 49.6325C159.117 50.6927 158.771 51.7326 158.445 52.7519L162.256 53.9681ZM163.264 50.9435C163.627 49.8991 163.968 48.9189 164.287 48.0027L160.51 46.6853C160.19 47.6038 159.848 48.5862 159.485 49.6325L163.264 50.9435ZM164.292 47.9893C164.61 47.0556 164.896 46.2306 165.149 45.5136L161.377 44.1824C161.118 44.916 160.827 45.755 160.506 46.6987L164.292 47.9893ZM165.131 45.5623C165.408 44.838 165.62 44.2875 165.767 43.9089L162.039 42.4591C161.887 42.8485 161.672 43.4074 161.395 44.1337L165.131 45.5623ZM165.845 46.6795C165.55 47.5668 165.211 48.562 164.829 49.6658L168.609 50.9742C168.995 49.8593 169.339 48.8492 169.64 47.9445L165.845 46.6795ZM164.821 49.6875C164.445 50.8165 164.102 51.9664 163.793 53.1372L167.66 54.1588C167.949 53.0682 168.267 51.9995 168.616 50.9525L164.821 49.6875ZM165.727 55.648H169.695V51.648H165.727V55.648ZM171.631 53.1461C171.327 51.9742 171.012 50.8334 170.686 49.7237L166.848 50.8523C167.162 51.9186 167.465 53.0178 167.759 54.1499L171.631 53.1461ZM170.698 49.7681C170.396 48.6481 170.115 47.6418 169.854 46.7502L166.015 47.8738C166.266 48.7315 166.54 49.7092 166.836 50.8079L170.698 49.7681ZM167.935 45.312H167.743V49.312H167.935V45.312ZM186.365 55.728V53.728H184.365V55.728H186.365ZM186.365 61.872L186.892 63.8015L188.365 63.3996V61.872H186.365ZM185.245 62.064L184.997 60.0794L184.987 60.0808L185.245 62.064ZM182.461 62.032L182.895 60.0796L182.852 60.0701L182.809 60.0624L182.461 62.032ZM181.533 61.648L180.267 63.1959L180.299 63.2227L180.333 63.248L181.533 61.648ZM180.989 60.848L179.117 61.5502L180.989 60.848ZM181.149 43.408L182.563 44.8222L182.563 44.8222L181.149 43.408ZM182.173 42.8L182.834 44.6877L182.839 44.686L182.173 42.8ZM184.701 42.256L184.922 44.2438L184.944 44.2413L184.966 44.2385L184.701 42.256ZM194.429 43.92L193.153 45.46L194.429 43.92ZM195.645 52.336L197.263 53.5123V53.5123L195.645 52.336ZM193.213 54.512L192.256 52.7562L190.247 53.852L191.602 55.6962L193.213 54.512ZM195.485 57.456L197.036 56.1935V56.1935L195.485 57.456ZM197.245 59.952L199.168 60.5014L199.4 59.6913L198.982 58.9597L197.245 59.952ZM196.061 61.68L197.2 63.3244L197.206 63.32L197.212 63.3156L196.061 61.68ZM192.957 62.096L193.554 60.187L192.957 62.096ZM192.061 61.648L193.261 60.048L192.061 61.648ZM191.357 60.944L189.772 62.1634L191.357 60.944ZM190.749 60.048L192.464 59.019L192.456 59.0051L192.447 58.9914L190.749 60.048ZM188.061 55.728L189.759 54.6714L189.172 53.728H188.061V55.728ZM190.301 50.864L191.609 52.3776L191.628 52.361L191.647 52.3439L190.301 50.864ZM190.205 47.184L188.925 48.7204L188.959 48.7492L188.995 48.7763L190.205 47.184ZM186.333 46.672L185.976 44.7043L184.333 45.0028V46.672H186.333ZM186.333 51.472H184.333V53.472H186.333V51.472ZM184.365 55.728V61.872H188.365V55.728H184.365ZM185.839 59.9425C185.75 59.9668 185.495 60.0172 184.997 60.0794L185.493 64.0486C186.019 63.9828 186.512 63.9052 186.892 63.8015L185.839 59.9425ZM184.987 60.0808C184.581 60.1337 184.177 60.16 183.773 60.16V64.16C184.351 64.16 184.928 64.1223 185.504 64.0472L184.987 60.0808ZM183.773 60.16C183.394 60.16 183.107 60.1267 182.895 60.0796L182.027 63.9844C182.584 64.108 183.171 64.16 183.773 64.16V60.16ZM182.809 60.0624C182.756 60.0532 182.73 60.0432 182.722 60.04C182.715 60.0371 182.721 60.0389 182.733 60.048L180.333 63.248C180.876 63.655 181.489 63.8913 182.114 64.0016L182.809 60.0624ZM182.8 60.1001C182.84 60.1333 182.865 60.1638 182.875 60.1794C182.885 60.1934 182.877 60.1864 182.862 60.1458L179.117 61.5502C179.343 62.1551 179.709 62.7392 180.267 63.1959L182.8 60.1001ZM182.862 60.1458C182.85 60.1143 182.797 59.9309 182.797 59.504H178.797C178.797 60.1864 178.872 60.8991 179.117 61.5502L182.862 60.1458ZM182.797 59.504V44.432H178.797V59.504H182.797ZM182.797 44.432C182.797 44.378 182.805 44.4081 182.777 44.4902C182.745 44.5815 182.68 44.7061 182.563 44.8222L179.735 41.9938C179.009 42.7198 178.797 43.6445 178.797 44.432H182.797ZM182.563 44.8222C182.564 44.8222 182.567 44.8187 182.575 44.8123C182.584 44.8058 182.598 44.796 182.618 44.7837C182.66 44.7588 182.729 44.7244 182.834 44.6877L181.513 40.9123C180.871 41.1368 180.25 41.4793 179.735 41.9938L182.563 44.8222ZM182.839 44.686C183.389 44.4917 184.077 44.3377 184.922 44.2438L184.48 40.2682C183.405 40.3877 182.408 40.5963 181.508 40.914L182.839 44.686ZM184.966 44.2385C185.828 44.1235 186.763 44.064 187.773 44.064V40.064C186.607 40.064 185.494 40.1325 184.437 40.2735L184.966 44.2385ZM187.773 44.064C190.483 44.064 192.164 44.64 193.153 45.46L195.705 42.38C193.708 40.7253 190.952 40.064 187.773 40.064V44.064ZM193.153 45.46C194.144 46.2806 194.669 47.3673 194.669 48.944H198.669C198.669 46.2967 197.702 44.0341 195.705 42.38L193.153 45.46ZM194.669 48.944C194.669 49.9054 194.428 50.6094 194.028 51.1597L197.263 53.5123C198.228 52.1853 198.669 50.6279 198.669 48.944H194.669ZM194.028 51.1597C193.504 51.8795 192.912 52.3979 192.256 52.7562L194.171 56.2678C195.391 55.6021 196.421 54.6698 197.263 53.5123L194.028 51.1597ZM191.602 55.6962C192.387 56.7656 193.165 57.7733 193.934 58.7185L197.036 56.1935C196.312 55.3041 195.575 54.3491 194.825 53.3278L191.602 55.6962ZM193.934 58.7185C194.635 59.5801 195.152 60.3204 195.509 60.9443L198.982 58.9597C198.485 58.0903 197.828 57.1666 197.036 56.1935L193.934 58.7185ZM195.322 59.4026C195.221 59.7576 195.073 59.9296 194.91 60.0444L197.212 63.3156C198.201 62.6198 198.843 61.6398 199.168 60.5014L195.322 59.4026ZM194.923 60.0356C194.718 60.1776 194.489 60.256 194.173 60.256V64.256C195.265 64.256 196.295 63.9504 197.2 63.3244L194.923 60.0356ZM194.173 60.256C193.847 60.256 193.653 60.2179 193.554 60.187L192.361 64.005C192.945 64.1874 193.561 64.256 194.173 64.256V60.256ZM193.554 60.187C193.404 60.1404 193.315 60.0884 193.261 60.048L190.861 63.248C191.319 63.5916 191.827 63.8383 192.361 64.005L193.554 60.187ZM193.261 60.048C193.163 59.9744 193.056 59.8715 192.943 59.7246L189.772 62.1634C190.086 62.5712 190.447 62.9376 190.861 63.248L193.261 60.048ZM192.943 59.7246C192.779 59.512 192.619 59.2774 192.464 59.019L189.034 61.077C189.263 61.4586 189.509 61.8213 189.772 62.1634L192.943 59.7246ZM192.447 58.9914L189.759 54.6714L186.363 56.7846L189.051 61.1046L192.447 58.9914ZM188.061 53.728H186.365V57.728H188.061V53.728ZM188.381 53.472C189.522 53.472 190.676 53.1826 191.609 52.3776L188.994 49.3504C188.987 49.3561 188.862 49.472 188.381 49.472V53.472ZM191.647 52.3439C192.642 51.4389 193.005 50.2153 193.005 49.008H189.005C189.005 49.2238 188.974 49.3326 188.959 49.3707C188.952 49.3889 188.948 49.3937 188.95 49.3908C188.951 49.3897 188.952 49.3881 188.954 49.3864C188.955 49.3847 188.956 49.3839 188.956 49.3841L191.647 52.3439ZM193.005 49.008C193.005 47.7192 192.553 46.456 191.415 45.5917L188.995 48.7763C188.999 48.7795 188.994 48.7759 188.986 48.7653C188.977 48.7546 188.973 48.7467 188.974 48.7473C188.974 48.7486 189.005 48.8195 189.005 49.008H193.005ZM191.486 45.6476C190.438 44.7741 189.042 44.544 187.741 44.544V48.544C188.189 48.544 188.5 48.5872 188.702 48.6398C188.903 48.6919 188.949 48.7402 188.925 48.7204L191.486 45.6476ZM187.741 44.544C187.389 44.544 187.05 44.5552 186.752 44.5882L187.194 48.5638C187.281 48.5541 187.454 48.544 187.741 48.544V44.544ZM186.752 44.5882C186.505 44.6157 186.246 44.6552 185.976 44.7043L186.691 48.6397C186.89 48.6035 187.057 48.579 187.194 48.5638L186.752 44.5882ZM184.333 46.672V51.472H188.333V46.672H184.333ZM186.333 53.472H188.381V49.472H186.333V53.472ZM199.893 47.088L198.205 48.1617L198.795 49.088H199.893V47.088ZM199.477 46.128L197.569 46.7303V46.7303L199.477 46.128ZM199.829 43.056L198.455 41.602L198.435 41.6216L198.414 41.6418L199.829 43.056ZM215.253 42.512L216.94 41.4382L216.35 40.512H215.253V42.512ZM215.669 43.472L217.576 42.8697V42.8697L215.669 43.472ZM215.285 46.544L213.911 45.09L213.891 45.1096L213.87 45.1298L215.285 46.544ZM210.293 47.088V45.088H208.293V47.088H210.293ZM210.293 61.872L210.819 63.8015L212.293 63.3996V61.872H210.293ZM209.173 62.064L208.924 60.0794L208.914 60.0808L209.173 62.064ZM206.389 62.032L206.822 60.0796L206.779 60.0701L206.736 60.0624L206.389 62.032ZM205.461 61.648L206.661 60.048L205.461 61.648ZM204.885 60.848L203.012 61.5502L204.885 60.848ZM204.693 47.088H206.693V45.088H204.693V47.088ZM201.58 46.0142C201.559 45.9822 201.484 45.8426 201.384 45.5257L197.569 46.7303C197.725 47.2241 197.927 47.7245 198.205 48.1617L201.58 46.0142ZM201.384 45.5257C201.32 45.3255 201.285 45.1028 201.285 44.848H197.285C197.285 45.4892 197.377 46.1198 197.569 46.7303L201.384 45.5257ZM201.285 44.848C201.285 44.5677 201.316 44.4166 201.334 44.357C201.35 44.3052 201.339 44.3738 201.243 44.4702L198.414 41.6418C197.501 42.5555 197.285 43.8013 197.285 44.848H201.285ZM201.202 44.51C201.203 44.5088 201.2 44.5119 201.193 44.5163C201.186 44.5208 201.18 44.5232 201.178 44.524C201.172 44.5261 201.205 44.512 201.301 44.512V40.512C200.265 40.512 199.26 40.842 198.455 41.602L201.202 44.51ZM201.301 44.512H215.253V40.512H201.301V44.512ZM213.565 43.5858C213.586 43.6178 213.661 43.7574 213.761 44.0743L217.576 42.8697C217.42 42.3759 217.218 41.8755 216.94 41.4382L213.565 43.5858ZM213.761 44.0743C213.825 44.2745 213.861 44.4972 213.861 44.752H217.861C217.861 44.1108 217.768 43.4802 217.576 42.8697L213.761 44.0743ZM213.861 44.752C213.861 45.0237 213.828 45.1636 213.812 45.212C213.8 45.25 213.816 45.18 213.911 45.09L216.658 47.998C217.622 47.0877 217.861 45.825 217.861 44.752H213.861ZM213.87 45.1298C213.877 45.1226 213.89 45.1122 213.906 45.1017C213.922 45.0912 213.936 45.0846 213.946 45.0811C213.965 45.0736 213.941 45.088 213.845 45.088V49.088C214.878 49.088 215.899 48.7578 216.699 47.9582L213.87 45.1298ZM213.845 45.088H210.293V49.088H213.845V45.088ZM208.293 47.088V61.872H212.293V47.088H208.293ZM209.766 59.9425C209.677 59.9668 209.422 60.0172 208.924 60.0794L209.421 64.0486C209.947 63.9828 210.439 63.9052 210.819 63.8015L209.766 59.9425ZM208.914 60.0808C208.508 60.1337 208.104 60.16 207.701 60.16V64.16C208.278 64.16 208.855 64.1223 209.431 64.0472L208.914 60.0808ZM207.701 60.16C207.322 60.16 207.034 60.1267 206.822 60.0796L205.955 63.9844C206.511 64.108 207.098 64.16 207.701 64.16V60.16ZM206.736 60.0624C206.684 60.0532 206.657 60.0432 206.649 60.04C206.642 60.0371 206.648 60.0389 206.661 60.048L204.261 63.248C204.803 63.655 205.416 63.8913 206.041 64.0016L206.736 60.0624ZM206.661 60.048C206.699 60.0768 206.728 60.1088 206.748 60.1354C206.766 60.1605 206.766 60.1685 206.757 60.1458L203.012 61.5502C203.255 62.1978 203.658 62.7964 204.261 63.248L206.661 60.048ZM206.757 60.1458C206.745 60.1143 206.693 59.9309 206.693 59.504H202.693C202.693 60.1864 202.768 60.8991 203.012 61.5502L206.757 60.1458ZM206.693 59.504V47.088H202.693V59.504H206.693ZM204.693 45.088H199.893V49.088H204.693V45.088Z" fill="#2D2C26" mask="url(#path-6-outside-1_10_146)"/>
<defs>
<filter id="filter0_di_10_146" x="0" y="0" width="364.94" height="101" filterUnits="userSpaceOnUse" color-interpolation-filters="sRGB">
<feFlood flood-opacity="0" result="BackgroundImageFix"/>
<feColorMatrix in="SourceAlpha" type="matrix" values="0 0 0 0 0 0 0 0 0 0 0 0 0 0 0 0 0 0 127 0" result="hardAlpha"/>
<feMorphology radius="2" operator="dilate" in="SourceAlpha" result="effect1_dropShadow_10_146"/>
<feOffset/>
<feComposite in2="hardAlpha" operator="out"/>
<feColorMatrix type="matrix" values="0 0 0 0 0.239802 0 0 0 0 0.438031 0 0 0 0 0.78839 0 0 0 0.4 0"/>
<feBlend mode="normal" in2="BackgroundImageFix" result="effect1_dropShadow_10_146"/>
<feBlend mode="normal" in="SourceGraphic" in2="effect1_dropShadow_10_146" result="shape"/>
<feColorMatrix in="SourceAlpha" type="matrix" values="0 0 0 0 0 0 0 0 0 0 0 0 0 0 0 0 0 0 127 0" result="hardAlpha"/>
<feOffset dy="2"/>
<feGaussianBlur stdDeviation="0.5"/>
<feComposite in2="hardAlpha" operator="arithmetic" k2="-1" k3="1"/>
<feColorMatrix type="matrix" values="0 0 0 0 0 0 0 0 0 0 0 0 0 0 0 0 0 0 0.25 0"/>
<feBlend mode="normal" in2="shape" result="effect2_innerShadow_10_146"/>
</filter>
<filter id="filter1_i_10_146" x="23.7434" y="13.7972" width="317.453" height="74.4054" filterUnits="userSpaceOnUse" color-interpolation-filters="sRGB">
<feFlood flood-opacity="0" result="BackgroundImageFix"/>
<feBlend mode="normal" in="SourceGraphic" in2="BackgroundImageFix" result="shape"/>
<feColorMatrix in="SourceAlpha" type="matrix" values="0 0 0 0 0 0 0 0 0 0 0 0 0 0 0 0 0 0 127 0" result="hardAlpha"/>
<feOffset dy="1"/>
<feGaussianBlur stdDeviation="1.5"/>
<feComposite in2="hardAlpha" operator="arithmetic" k2="-1" k3="1"/>
<feColorMatrix type="matrix" values="0 0 0 0 1 0 0 0 0 1 0 0 0 0 1 0 0 0 0.25 0"/>
<feBlend mode="normal" in2="shape" result="effect1_innerShadow_10_146"/>
</filter>
<linearGradient id="paint0_linear_10_146" x1="182.47" y1="4.62158" x2="182.47" y2="96.3783" gradientUnits="userSpaceOnUse">
<stop stop-color="#D4D44F"/>
<stop offset="0.208327" stop-color="#8F8D30"/>
<stop offset="0.942715" stop-color="#EADD2B"/>
</linearGradient>
<linearGradient id="paint1_linear_10_146" x1="182.47" y1="13.7972" x2="182.47" y2="87.2027" gradientUnits="userSpaceOnUse">
<stop stop-color="#CAC53D"/>
<stop offset="1" stop-color="#EADD2B"/>
</linearGradient>
</defs>
</svg>