<svg width="61" height="61" viewBox="0 0 61 61" fill="none" xmlns="http://www.w3.org/2000/svg">
<rect x="1.5" y="1.5" width="58" height="58" rx="2.5" fill="#102F5B"/>
<rect x="1.5" y="1.5" width="58" height="58" rx="2.5" stroke="#0049CB" stroke-width="3"/>
<path d="M22.1667 45.1667C24.4583 45.1667 26.3333 43.2917 26.3333 41V20.1667C26.3333 17.875 24.4583 16 22.1667 16C19.875 16 18 17.875 18 20.1667V41C18 43.2917 19.875 45.1667 22.1667 45.1667ZM34.6667 20.1667V41C34.6667 43.2917 36.5417 45.1667 38.8333 45.1667C41.125 45.1667 43 43.2917 43 41V20.1667C43 17.875 41.125 16 38.8333 16C36.5417 16 34.6667 17.875 34.6667 20.1667Z" fill="white"/>
<path d="M56.0323 10.1165C55.1471 12.6224 52.6631 11.6605 49.354 10.9482C45.2369 10.1151 43.1638 10.0431 44.0489 7.53726C44.9341 5.0314 48.3342 3.57739 51.6433 4.28963C54.9524 5.00188 56.9174 7.61067 56.0323 10.1165Z" fill="white" fill-opacity="0.6" style="mix-blend-mode:overlay"/>
<path d="M34.7582 6.98294C34.6111 8.2386 32.5916 8.7977 29.9612 8.56655C26.6995 8.30487 25.0855 7.40155 25.2326 6.14589C25.3797 4.89023 27.6313 4.05969 30.2617 4.29084C32.8922 4.52199 34.9053 5.72728 34.7582 6.98294Z" fill="white" fill-opacity="0.4" style="mix-blend-mode:overlay"/>
</svg>