<svg width="51" height="49" viewBox="0 0 51 49" fill="none" xmlns="http://www.w3.org/2000/svg">
<mask id="path-1-inside-1_71_273" fill="white">
<rect width="51" height="48.6667" rx="2"/>
</mask>
<rect width="51" height="48.6667" rx="2" fill="#EED601"/>
<rect width="51" height="48.6667" rx="2" stroke="#D4BF05" stroke-width="6" mask="url(#path-1-inside-1_71_273)"/>
<path d="M28.6667 21.2222L35.7491 17.6818C35.9862 17.5633 36.2497 17.5074 36.5144 17.5193C36.7792 17.5312 37.0366 17.6106 37.2621 17.7499C37.4875 17.8892 37.6737 18.0839 37.8028 18.3153C37.932 18.5468 37.9999 18.8074 38 19.0724V29.5942C37.9999 29.8593 37.932 30.1199 37.8028 30.3514C37.6737 30.5828 37.4875 30.7774 37.2621 30.9167C37.0366 31.0561 36.7792 31.1354 36.5144 31.1474C36.2497 31.1593 35.9862 31.1034 35.7491 30.9849L28.6667 27.4444V21.2222ZM10 18.1111C10 17.286 10.3278 16.4947 10.9112 15.9112C11.4947 15.3278 12.286 15 13.1111 15H25.5556C26.3807 15 27.172 15.3278 27.7554 15.9112C28.3389 16.4947 28.6667 17.286 28.6667 18.1111V30.5556C28.6667 31.3807 28.3389 32.172 27.7554 32.7554C27.172 33.3389 26.3807 33.6667 25.5556 33.6667H13.1111C12.286 33.6667 11.4947 33.3389 10.9112 32.7554C10.3278 32.172 10 31.3807 10 30.5556V18.1111Z" stroke="#0F275D" stroke-width="3.41667" stroke-linecap="round" stroke-linejoin="round"/>
<path d="M47.0322 9.24428C46.147 11.7501 43.663 10.7882 40.3539 10.076C36.2368 9.24282 34.1637 9.17086 35.0489 6.66501C35.934 4.15915 39.3341 2.70514 42.6432 3.41738C45.9523 4.12963 47.9173 6.73842 47.0322 9.24428Z" fill="#FFF5CE" fill-opacity="0.6" style="mix-blend-mode:overlay"/>
<path d="M25.7581 6.11063C25.611 7.36629 23.5916 7.92538 20.9612 7.69424C17.6994 7.43256 16.0855 6.52924 16.2326 5.27358C16.3797 4.01791 18.6313 3.18738 21.2617 3.41853C23.8921 3.64967 25.9052 4.85497 25.7581 6.11063Z" fill="#FFE600" fill-opacity="0.4" style="mix-blend-mode:overlay"/>
</svg>